<?xml version="1.0" encoding="UTF-8"?>
<svg id="Layer_1" data-name="Layer 1" xmlns="http://www.w3.org/2000/svg" viewBox="0 0 329.3 309.76">
  <defs>
    <style>
      .cls-1 {
        fill: #05ff88;
      }

      .cls-2 {
        fill: #0000fe;
      }

      .cls-3 {
        fill: #fefefe;
      }
    </style>
  </defs>
  <rect class="cls-2" x="39.16" y="29.39" width="250.98" height="250.98" rx="125.49" ry="125.49"/>
  <g>
    <path class="cls-1" d="M134.96,160.42s29.04-1.27,67.68-34.77l-6.94,45.25s-23.69,15.13-65.38,3.22l4.64-13.7Z"/>
    <rect class="cls-3" x="184.57" y="123.63" width="40.54" height="108.21" rx="19.16" ry="19.16"/>
    <g>
      <rect class="cls-3" x="104.19" y="138.15" width="40.54" height="93.69" rx="19.01" ry="19.01"/>
      <g>
        <path class="cls-2" d="M121.44,152.19l6.13-.02c.3-.02.47.24.38.53l-1.13,3.93c-.12.11-.28.12-.43.13-.94.08-2.72.09-3.66,0-.28-.03-.37-.06-.48-.33-.46-1.14-.62-2.64-1.07-3.81-.03-.2.06-.4.27-.43Z"/>
        <path class="cls-2" d="M122.72,159.08h3.64c.2,0,.36.11.38.26l3.58,35.21c0,.07-.02.14-.08.19l-5.36,5.12c-.15.15-.45.15-.61,0l-5.6-5.5c-.06-.05-.08-.12-.07-.19l3.74-34.83c.02-.15.18-.26.38-.26Z"/>
      </g>
      <circle class="cls-3" cx="124.46" cy="111.09" r="19.92"/>
    </g>
    <circle class="cls-3" cx="204.84" cy="97.85" r="19.92"/>
  </g>
</svg>